Units are S.I. units (second, meters, Newtons, ...)
Angles are in degrees.
name walk
datarows 59
datacolumns 18
range 2.490000 3.070000
endheader
time root_joint_q1 root_joint_q2 root_joint_q3 root_joint_q4 root_joint_q5 root_joint_q6 root_joint_q7 exo_ha_l_q exo_hip_l exo_knee_l l_ankle_coupling l_foot exo_ha_r_q exo_hip_r exo_knee_r r_ankle_coupling r_foot
2.490000	0.961590	-0.004844	0.898121	0.000250	0.001607	0.001157	0.999998	-0.007234	0.401777	-0.819259	0.420698	-0.008098	0.090894	-0.112799	-0.501606	0.604097	-0.079529
2.500000	0.961457	-0.006025	0.897206	0.000364	0.001925	0.001377	0.999997	-0.008542	0.406119	-0.827185	0.424919	-0.009698	0.093247	-0.107014	-0.513484	0.610670	-0.082085
2.510000	0.961304	-0.007157	0.896299	0.000506	0.002242	0.001588	0.999996	-0.009728	0.410372	-0.834844	0.428960	-0.011230	0.095474	-0.101248	-0.525266	0.617163	-0.084568
2.520000	0.961144	-0.008273	0.895398	0.000709	0.002549	0.001795	0.999995	-0.010762	0.414468	-0.842146	0.432784	-0.012733	0.097553	-0.095531	-0.536969	0.623609	-0.087024
2.530000	0.961006	-0.009338	0.894514	0.001001	0.002851	0.001991	0.999993	-0.011542	0.418305	-0.848952	0.436360	-0.014155	0.099374	-0.089891	-0.548615	0.630062	-0.089398
2.540000	0.960956	-0.010182	0.893677	0.001392	0.003174	0.002142	0.999992	-0.011824	0.421737	-0.855062	0.439683	-0.015262	0.100670	-0.084358	-0.560225	0.636620	-0.091429
2.550000	0.961241	-0.010074	0.892988	0.001773	0.003637	0.002105	0.999990	-0.010881	0.424477	-0.860245	0.443049	-0.015072	0.100593	-0.079061	-0.571712	0.643532	-0.092014
2.560000	0.963299	-0.008302	0.892299	0.002361	0.004274	0.001734	0.999987	-0.007327	0.424601	-0.865236	0.449177	-0.012586	0.097685	-0.076394	-0.582342	0.652495	-0.090083
2.570000	0.968424	-0.004174	0.891421	0.003252	0.005130	0.000879	0.999981	-0.000041	0.420618	-0.871206	0.460821	-0.006835	0.090746	-0.078406	-0.591659	0.665165	-0.084590
2.580000	0.977296	0.002634	0.890214	0.004744	0.006235	-0.000550	0.999969	0.012077	0.411329	-0.877726	0.478826	0.002713	0.078615	-0.085898	-0.600138	0.682874	-0.074944
2.590000	0.990638	0.012448	0.889409	0.007682	0.007851	-0.002680	0.999936	0.031349	0.392884	-0.876823	0.499633	0.016723	0.058754	-0.101231	-0.602653	0.703402	-0.060258
2.600000	1.000516	0.018227	0.889785	0.000499	0.001888	-0.003547	0.999992	0.023686	0.362145	-0.871764	0.513395	0.023710	0.061959	-0.101628	-0.618031	0.717175	-0.051081
2.610000	1.010475	0.023598	0.890337	-0.001919	0.000274	-0.004560	0.999988	0.025745	0.340046	-0.864888	0.525420	0.030901	0.055658	-0.092194	-0.634222	0.727291	-0.042198
2.620000	1.020548	0.027256	0.890130	-0.005971	-0.003500	-0.005133	0.999963	0.022121	0.314299	-0.860631	0.539357	0.035543	0.056660	-0.090710	-0.651434	0.738066	-0.034733
2.630000	1.030939	0.028212	0.883794	-0.017928	-0.020294	-0.004723	0.999622	-0.001559	0.268841	-0.878353	0.568812	0.035613	0.080501	-0.122569	-0.676617	0.747239	-0.027761
2.640000	1.046132	0.036794	0.908298	0.022809	0.044598	-0.007404	0.998717	0.098341	0.358398	-0.801748	0.532956	0.055385	-0.032947	-0.015027	-0.658465	0.767398	-0.024023
2.650000	1.052262	0.030627	0.899988	-0.001102	0.005921	-0.001532	0.999981	0.042910	0.265773	-0.802546	0.547803	0.045192	0.052540	-0.071033	-0.693977	0.770490	-0.029225
2.660000	1.059100	0.031226	0.900153	-0.002985	0.001338	-0.001321	0.999994	0.040953	0.238477	-0.786411	0.549493	0.045548	0.047519	-0.053922	-0.717671	0.774072	-0.029600
2.670000	1.065184	0.031795	0.901019	-0.002533	0.000308	-0.001305	0.999996	0.043891	0.220141	-0.770443	0.549516	0.046150	0.041502	-0.036141	-0.740315	0.777955	-0.027734
2.680000	1.070407	0.032301	0.901909	-0.001337	0.000460	-0.001340	0.999998	0.048323	0.206441	-0.756342	0.549138	0.046761	0.037394	-0.020435	-0.761680	0.782865	-0.026157
2.690000	1.075100	0.032707	0.902819	-0.000692	0.000370	-0.001331	0.999999	0.051434	0.193339	-0.742961	0.548393	0.047142	0.035301	-0.004971	-0.782706	0.787831	-0.025064
2.700000	1.079479	0.033051	0.903806	-0.000490	0.000133	-0.001289	0.999999	0.053504	0.180487	-0.729742	0.547261	0.047362	0.034170	0.010925	-0.803550	0.792416	-0.024261
2.710000	1.083694	0.033355	0.904834	-0.000448	-0.000077	-0.001236	0.999999	0.055170	0.167994	-0.716597	0.545898	0.047494	0.033478	0.027251	-0.824158	0.796540	-0.023673
2.720000	1.087867	0.033621	0.905851	-0.000461	-0.000234	-0.001175	0.999999	0.056662	0.155738	-0.703566	0.544514	0.047560	0.033083	0.043781	-0.844437	0.800236	-0.023275
2.730000	1.092105	0.033851	0.906819	-0.000503	-0.000355	-0.001108	0.999999	0.058041	0.143546	-0.690708	0.543313	0.047569	0.032919	0.060288	-0.864274	0.803552	-0.023040
2.740000	1.096505	0.034052	0.907708	-0.000571	-0.000450	-0.001035	0.999999	0.059329	0.131266	-0.678078	0.542478	0.047537	0.032934	0.076588	-0.883547	0.806515	-0.022931
2.750000	1.101165	0.034235	0.908495	-0.000658	-0.000510	-0.000961	0.999999	0.060557	0.118788	-0.665724	0.542186	0.047482	0.033066	0.092533	-0.902121	0.809128	-0.022907
2.760000	1.106182	0.034419	0.909162	-0.000735	-0.000490	-0.000893	0.999999	0.061813	0.106085	-0.653705	0.542615	0.047437	0.033199	0.108049	-0.919848	0.811342	-0.022934
2.770000	1.111446	0.034597	0.909695	-0.000827	-0.000457	-0.000826	0.999999	0.063038	0.093183	-0.642040	0.543622	0.047388	0.033422	0.123204	-0.936634	0.812997	-0.023001
2.780000	1.116758	0.034765	0.910101	-0.000947	-0.000448	-0.000755	0.999999	0.064197	0.080344	-0.630838	0.544980	0.047331	0.033721	0.137913	-0.952316	0.813942	-0.023075
2.790000	1.122053	0.034929	0.910377	-0.001090	-0.000467	-0.000682	0.999999	0.065311	0.067692	-0.620194	0.546653	0.047274	0.034041	0.152158	-0.966714	0.814009	-0.023121
2.800000	1.127333	0.035102	0.910509	-0.001245	-0.000513	-0.000611	0.999999	0.066422	0.055268	-0.610215	0.548711	0.047239	0.034316	0.165924	-0.979621	0.813007	-0.023093
2.810000	1.132636	0.035302	0.910467	-0.001377	-0.000572	-0.000546	0.999999	0.067632	0.043084	-0.601027	0.551293	0.047261	0.034429	0.179203	-0.990790	0.810726	-0.022944
2.820000	1.138025	0.035562	0.910216	-0.001394	-0.000575	-0.000501	0.999999	0.069192	0.031234	-0.592743	0.554558	0.047405	0.034114	0.192046	-0.999902	0.806941	-0.022634
2.830000	1.143532	0.035892	0.909755	-0.001295	-0.000515	-0.000480	0.999999	0.071113	0.019676	-0.585346	0.558551	0.047685	0.033366	0.204452	-1.006930	0.801630	-0.022154
2.840000	1.149148	0.036273	0.909118	-0.001172	-0.000438	-0.000474	0.999999	0.073174	0.008270	-0.578705	0.563182	0.048062	0.032429	0.216401	-1.012145	0.794960	-0.021528
2.850000	1.154815	0.036698	0.908344	-0.001062	-0.000347	-0.000480	0.999999	0.075289	-0.002949	-0.572696	0.568288	0.048521	0.031405	0.227962	-1.015746	0.787064	-0.020786
2.860000	1.160332	0.037163	0.907482	-0.000966	-0.000254	-0.000496	0.999999	0.077442	-0.013715	-0.567300	0.573561	0.049050	0.030336	0.239159	-1.017869	0.778031	-0.019963
2.870000	1.165476	0.037665	0.906579	-0.000873	-0.000171	-0.000520	0.999999	0.079651	-0.023701	-0.562557	0.578685	0.049641	0.029209	0.250014	-1.018620	0.767908	-0.019088
2.880000	1.170255	0.038189	0.905653	-0.000814	-0.000139	-0.000545	1.000000	0.081824	-0.033054	-0.558338	0.583601	0.050267	0.028149	0.260811	-1.018199	0.756666	-0.018202
2.890000	1.174709	0.038728	0.904713	-0.000779	-0.000139	-0.000571	1.000000	0.083978	-0.041813	-0.554585	0.588326	0.050922	0.027169	0.271651	-1.016718	0.744338	-0.017334
2.900000	1.178883	0.039279	0.903769	-0.000752	-0.000138	-0.000599	1.000000	0.086135	-0.049989	-0.551275	0.592913	0.051599	0.026244	0.282505	-1.014237	0.731008	-0.016500
2.910000	1.182812	0.039830	0.902825	-0.000732	-0.000128	-0.000629	1.000000	0.088285	-0.057616	-0.548393	0.597399	0.052282	0.025375	0.293347	-1.010812	0.716755	-0.015714
2.920000	1.186515	0.040365	0.901885	-0.000718	-0.000108	-0.000657	1.000000	0.090405	-0.064723	-0.545936	0.601811	0.052946	0.024574	0.304168	-1.006493	0.701642	-0.014993
2.930000	1.190000	0.040862	0.900953	-0.000708	-0.000078	-0.000678	1.000000	0.092469	-0.071328	-0.543898	0.606156	0.053559	0.023857	0.314970	-1.001331	0.685716	-0.014360
2.940000	1.193265	0.041294	0.900037	-0.000696	-0.000044	-0.000687	1.000000	0.094448	-0.077432	-0.542279	0.610427	0.054081	0.023244	0.325760	-0.995377	0.669015	-0.013848
2.950000	1.196298	0.041631	0.899145	-0.000676	-0.000011	-0.000676	1.000000	0.096309	-0.083030	-0.541081	0.614607	0.054462	0.022759	0.336550	-0.988681	0.651571	-0.013500
2.960000	1.199079	0.041832	0.898283	-0.000637	0.000005	-0.000635	1.000000	0.098017	-0.088119	-0.540307	0.618663	0.054644	0.022437	0.347346	-0.981298	0.633414	-0.013367
2.970000	1.201578	0.041855	0.897449	-0.000563	-0.000030	-0.000553	1.000000	0.099540	-0.092718	-0.539975	0.622560	0.054562	0.022329	0.358131	-0.973285	0.614587	-0.013504
2.980000	1.203795	0.041671	0.896624	-0.000428	-0.000146	-0.000420	1.000000	0.100895	-0.096881	-0.540096	0.626305	0.054178	0.022462	0.368840	-0.964690	0.595173	-0.013946
2.990000	1.205763	0.041276	0.895766	-0.000194	-0.000374	-0.000233	1.000000	0.102161	-0.100720	-0.540691	0.629965	0.053494	0.022803	0.379324	-0.955546	0.575318	-0.014665
3.000000	1.207517	0.040673	0.894801	0.000171	-0.000801	0.000013	1.000000	0.103416	-0.104446	-0.541832	0.633648	0.052528	0.023229	0.389266	-0.945869	0.555253	-0.015516
3.010000	1.209100	0.039874	0.893594	0.000617	-0.001652	0.000338	0.999998	0.104592	-0.108531	-0.543710	0.637567	0.051313	0.023404	0.397997	-0.935680	0.535324	-0.016166
3.020000	1.210579	0.038901	0.891893	0.000864	-0.003496	0.000797	0.999993	0.105168	-0.114117	-0.546792	0.642187	0.049886	0.022796	0.403962	-0.925133	0.516003	-0.016177
3.030000	1.212127	0.037730	0.889235	0.000366	-0.007427	0.001504	0.999971	0.104022	-0.123545	-0.551721	0.648292	0.048225	0.021679	0.403187	-0.915380	0.497519	-0.015448
3.040000	1.214329	0.036360	0.890229	0.000395	-0.005100	0.001668	0.999986	0.103134	-0.123389	-0.549358	0.650082	0.045733	0.024110	0.405337	-0.915904	0.500369	-0.017886
3.050000	1.214329	0.036360	0.890229	0.000395	-0.005100	0.001668	0.999986	0.103134	-0.123389	-0.549358	0.650082	0.045733	0.024110	0.405337	-0.915904	0.500369	-0.017886
3.060000	1.215791	0.036858	0.889556	0.000584	-0.003291	0.001473	0.999993	0.105586	-0.119042	-0.558550	0.658276	0.046372	0.023740	0.412120	-0.927295	0.508400	-0.017740
3.070000	1.217201	0.038740	0.888600	0.000336	-0.001727	0.001011	0.999998	0.109196	-0.115099	-0.568073	0.666778	0.049125	0.022466	0.418827	-0.939369	0.516689	-0.015735
